<?xml version="1.0" encoding="utf-8"?><svg width="304" height="185" viewBox="0 0 304 185" xmlns="http://www.w3.org/2000/svg" xmlns:xlink="http://www.w3.org/1999/xlink"><svg id="comment" data-name="Layer 1" width="68" height="68" viewBox="-2 -2 68 68" y="48.24"><defs><style>.acls-1{fill:#2f5572}</style></defs><title>comment</title><path class="acls-1" d="M.72.08A.67.67 0 0 0 0 .8v46.48a.72.72 0 0 0 .72.72H48l16 16V.72a.67.67 0 0 0-.72-.72H.8z"/></svg><svg id="facebook" data-name="Layer 1" width="25.23" height="46.01" viewBox="-2 -2 25.23 46.01" x="167.6" y="68"><defs><style>.bcls-1{fill:#fff}</style></defs><title>facebook</title><path class="bcls-1" d="M21.23.31V7H17.4a3.55 3.55 0 0 0-2.85.91 4.26 4.26 0 0 0-.74 2.72v4.77H21l-1 7.47h-6.19V42H6.27V22.85H0v-7.47h6.27V9.85q0-4.69 2.55-7.28A9 9 0 0 1 15.63 0a39.57 39.57 0 0 1 5.6.31z"/></svg><svg id="fire" data-name="Layer 1" width="60" height="68" viewBox="-2 -2 60 68" x="68" y="48.24"><defs><style>.ccls-1{fill:#d4953d}</style></defs><title>Untitled-2</title><path class="ccls-1" d="M16 0C24 16 0 24 0 40s16 24 16 24C8.16 48.16 32 40 32 24S16 0 16 0zm24 24c8 16-16 24-16 40h24c3.2 0 8-4 8-16 0-16-16-24-16-24z"/></svg><svg id="globe" data-name="Layer 1" width="68" height="68" viewBox="-2 -2 68 68" x="167.6"><defs><style>.dcls-1{fill:#d4953f}</style></defs><title>globe</title><path class="dcls-1" d="M32 0a32 32 0 1 0 32 32A32 32 0 0 0 32 0zm0 8a23.75 23.75 0 0 1 7.52 1.52c-1.68 1.6-3.6 3-3.28 4.48s5.52 1 5.52 4c0 2.16-3.36 2.8-1 5.28 2.8 2.8-5.12 7.84-5.28 11.52-.24 6.64 6.72 7.76 12.24 7.76 3.36 0 4.24 1.6 4 3.52a24.07 24.07 0 0 1-19.76 10 22.94 22.94 0 0 1-8.48-1.76c1.76-3.52-2.24-10.48-6-12.72-1.84-1.84-5.76-1.12-8-2a23.49 23.49 0 0 1-1.52-6.72 1.42 1.42 0 0 1 1.28-.72c1.52 0 3.6 3 4.72 2.72 1.4-.32-5.96-10.48-2.52-12.48 1.6-1 4.8 3.12 3.76-1.28-1-4.08 2.88-2.24 5.28-3.28 2.08-.88 3.6-3.28 1-4.72a8.55 8.55 0 0 1-1.76-1.52A23.75 23.75 0 0 1 32 8.08V8zm18.48 8.72A26.46 26.46 0 0 1 54 22.48v.24a11.78 11.78 0 0 1-1.76 1.76C50 26.72 49.68 22.8 48.72 22c-1-1-4.8.16-5.28-1-.56-1.48 4-3.4 7.04-4.28z"/></svg><svg id="instagram" data-name="Layer 1" width="46.01" height="46.01" viewBox="-2 -2 46.01 46.01" x="132" y="116.24000000000001"><defs><style>.ecls-1{fill:#fff}</style></defs><title>instagram</title><path class="ecls-1" d="M37.25 35.49V17.77h-3.69a11.77 11.77 0 0 1 .57 3.58 12.12 12.12 0 0 1-1.75 6.36 12.76 12.76 0 0 1-4.76 4.59 13.13 13.13 0 0 1-6.56 1.7 12.78 12.78 0 0 1-9.19-3.71 12 12 0 0 1-3.83-9 11.77 11.77 0 0 1 .49-3.56H4.68v17.76a1.63 1.63 0 0 0 1.6 1.67h29.3a1.63 1.63 0 0 0 1.17-.47 1.59 1.59 0 0 0 .5-1.2zm-7.77-14.57A7.75 7.75 0 0 0 27 15.14a8.28 8.28 0 0 0-6-2.4 8.25 8.25 0 0 0-5.91 2.39 7.75 7.75 0 0 0-2.47 5.78 7.75 7.75 0 0 0 2.47 5.79A8.25 8.25 0 0 0 21 29.1a8.28 8.28 0 0 0 6-2.4 7.75 7.75 0 0 0 2.48-5.78zm7.76-9.84V6.56a1.84 1.84 0 0 0-.54-1.31 1.8 1.8 0 0 0-1.31-.56h-4.78a1.8 1.8 0 0 0-1.31.56 1.84 1.84 0 0 0-.54 1.31v4.52A1.87 1.87 0 0 0 30.6 13h4.8a1.87 1.87 0 0 0 1.85-1.89zM42 5.39v31.23A5.41 5.41 0 0 1 36.62 42H5.39a5.19 5.19 0 0 1-3.8-1.59A5.19 5.19 0 0 1 0 36.62V5.39a5.19 5.19 0 0 1 1.59-3.8A5.19 5.19 0 0 1 5.39 0h31.23a5.19 5.19 0 0 1 3.8 1.59A5.19 5.19 0 0 1 42 5.39z"/></svg><svg id="mail" data-name="Layer 1" width="68" height="52" viewBox="-2 -2 68 52" x="64" y="116.24000000000001"><defs><style>.fcls-1{fill:#2f5572}</style></defs><title>mail</title><path class="fcls-1" d="M0 0v8l32 16L64 8V0H0zm0 16v32h64V16L32 32z"/></svg><svg width="167.6" height="48.24" viewBox="-2 -2 47.29 15.7" id="me-logo"><g transform="translate(-5.027 -6.31)" fill="#fff"><path d="M48.3 11.15s.01-1.575-1.992-2.064h1.545l-.013-2.721-6.842-.008c-2.985.21-3.065 1.485-3.237 1.485v-1.52c-1.521-.03-2.804.005-3.808.01-3.246.013-4.002.12-4.002.12-2.414.478-2.518 2.105-2.486 2.63.007.104.018.165.018.165.005.104.018.204.036.3.283 1.438 2.006 1.84 2.006 1.84h-1.683v.278l-1.376-2.064-.295-.443-1.89-2.836h-3.056l-2.423 3.721-.246.378-.796 1.224-.003-1.098v-.16l-.01-4.029-4.299.014-1.94 3.708-1.953-3.725-4.282-.023v7.794h1.054l-.064.024a2.313 2.313 0 0 0-.495.283c-.118.09-.221.185-.31.287a1.45 1.45 0 0 0-.218.326c-.062.115-.108.23-.139.342a2.14 2.14 0 0 0-.064.35.207.207 0 0 0-.01.058v.311a2.155 2.155 0 0 0 .194.723c.062.115.138.226.227.333.09.107.196.206.32.295.154.115.319.21.495.282.175.074.365.129.569.165.203.037.41.063.62.079.21.016.422.023.638.023h2.35v-3.881h2.709l.99-1.911-.05 1.868a2.81 2.81 0 0 0-.131.043c-.2.07-.359.156-.476.256a1.535 1.535 0 0 0-.45.68c-.098.283-.12.623-.12 1.02l-.002 1.906 2.289.002.008-1.183 3.054-.008V14.1h1.984l.824-1.46h3.273l.71 1.223-1.38.003c-.683 0-1.246.043-1.689.13-.185.035-.347.079-.49.13-.199.07-.358.156-.476.256a1.535 1.535 0 0 0-.45.68c-.098.283-.12.623-.12 1.02l-.001 1.906 2.288.002.008-1.183 3.054-.008v-2.673l3.21.003-.066.025c-.176.074-.341.168-.495.283-.117.09-.22.185-.31.287-.09.102-.162.21-.218.326-.061.115-.108.229-.138.342-.031.112-.053.229-.065.35a.205.205 0 0 0-.01.058V16.11a2.154 2.154 0 0 0 .194.723c.062.115.138.227.228.334.089.107.195.205.319.294.154.116.32.21.495.283.176.074.366.129.57.165.203.037.41.063.619.079.21.015.422.023.638.023h2.35v-3.884l.024-.001c.433-.013 1.356-.042 1.924-.07 2.418-.119 2.844-1.383 2.844-1.383l-.008 1.163c-.36.014-.683.05-.97.11a3.374 3.374 0 0 0-.6.18c-.12.05-.23.105-.33.167a1.731 1.731 0 0 0-.576.593 2.1 2.1 0 0 0-.263.854.931.931 0 0 0-.014.174V16c0 .016 0 .032.003.047.003.016.004.031.004.046.005.143.026.285.065.426.04.14.095.279.168.414.073.135.174.26.303.376.129.116.283.22.463.313.156.077.313.14.47.19.158.051.325.086.5.105.17.023.305.041.484.056.118.01.403.041.588.041h2.327v-1.748l-2.834-.022c-.203 0-.202-.255-.173-.412.04-.212.127-.296.597-.265l2.41-.013v-1.428h1.66v1.465h1.637l.003 2.423h2.364l-.01-2.423h1.612l.008-1.465.002-.274h-1.383c2.169-.75 1.884-2.703 1.884-2.703zm-10.694-1.4s-.518-.469-1.29-.647l1.191-.007s.027.537.099.654zm-6.488-2.88h6.115v1.67H33.63c-1.848 0-2.928.003-2.96.46a59.742 59.742 0 0 0-2.676.058c.039-2.334 3.124-2.187 3.124-2.187zm-9.604.017h2.48l1.556 2.317c-.778.061-1.635.142-2.563.248l-.3-.465-.333.54c-.891.109-1.842.241-2.847.401zM5.795 13.565v-.034c.36-.135 1.256-.46 2.622-.87l.04.904zm4.118 1.485h-2.1a1.3 1.3 0 0 0-.6.16c-.101.063-.227.224-.235.338l2.935-.004v.7l-2.974-.007c0 .035.098.374.306.444.156.052.563.114.563.114l2.095-.002.002.66-1.89.008c-.148 0-.314-.01-.458-.018a6.924 6.924 0 0 1-.806-.132 2.81 2.81 0 0 1-.379-.14A1.774 1.774 0 0 1 6 16.94a1.056 1.056 0 0 1-.243-.277c-.06-.1-.104-.2-.135-.305a1.235 1.235 0 0 1-.056-.347.194.194 0 0 1-.003-.034v-.03-.034a.727.727 0 0 1 .012-.128 1.45 1.45 0 0 1 .211-.628c.114-.177.268-.323.464-.437.2-.113.449-.198.748-.255.3-.057.65-.085 1.048-.085l1.868-.005v.674zm-.97-2.914l.084.16.053.102.757 1.44-.822.002-.061-1.441-.004-.08zm3.877 1.43h-2.496l-.674-1.26a71.98 71.98 0 0 1 4.36-1.06zM9.562 12.14L8.291 9.763l.118 2.718c-.857.259-1.729.536-2.614.834V6.871h3.438l2.28 4.38 2.282-4.347h3.421v3.423c-.806.151-1.64.321-2.499.51l.037-1.04-.599 1.165a85.656 85.656 0 0 0-4.593 1.18zm8.177 4.122l-3.068.002-.006 1.197h-1.229v-1.428c0-.3.04-.558.118-.771.079-.214.199-.385.36-.515.161-.13.42-.227.773-.292.354-.065.805-.073 1.352-.073l1.68-.009-.004.673-1.95-.005c-.235.003-.525.038-.673.09-.163.058-.399.324-.407.463h3.054zm7.535 0l-3.068.002-.005 1.197h-1.23v-1.428c0-.3.04-.558.119-.771.078-.214.198-.385.36-.515.16-.13.419-.227.773-.292.354-.065.804-.073 1.351-.073l1.68-.009-.003.673-1.95-.005c-.236.003-.526.038-.673.09-.164.058-.4.324-.407.463h3.053v.668zm7.316-1.21h-2.1a1.3 1.3 0 0 0-.599.161c-.102.063-.228.225-.235.338l2.934-.004v.7l-2.974-.007c0 .035.098.374.306.444.157.052.564.114.564.114l2.095-.002.002.66-1.89.008c-.149 0-.314-.01-.459-.018a6.889 6.889 0 0 1-.806-.131 2.815 2.815 0 0 1-.379-.14 1.774 1.774 0 0 1-.372-.23 1.055 1.055 0 0 1-.244-.278c-.059-.1-.104-.2-.135-.304a1.229 1.229 0 0 1-.056-.347.194.194 0 0 1-.003-.035v-.03-.033a.762.762 0 0 1 .012-.128c.027-.242.098-.451.211-.629.114-.177.269-.323.464-.436.2-.114.45-.199.749-.256.3-.057.648-.085 1.048-.085l1.868-.004v.673zm5.106-3.62c0 2.314-3.14 2.132-3.14 2.132h-9.041l-.877-1.471h-3.85l-.86 1.471h-5.306l.086-2.464c.792-.16 1.629-.316 2.508-.464V13.4l2.033-3.08a84.2 84.2 0 0 1 2.835-.357l-.305.495 1.867.016-.405-.63c.843-.08 1.71-.149 2.6-.206l2.55 3.795v-1.52h5.669c1.041 0 .942-.464.942-.464.083-.48-2-.397-2-.397-2.314.083-3.008-.099-3.008-.099-1.444-.228-1.854-.955-1.965-1.427a92.988 92.988 0 0 1 4.812-.08c1.06.034 2.112.003 2.112.003 3.057 0 2.743 1.984 2.743 1.984zm3.454-4.577h6.142v1.702h-5.553c-.909 0-.986.384-.986.384h-2.712c-.052-2.022 3.109-2.086 3.109-2.086zM40 15.03l-1.864-.007a1.91 1.91 0 0 0-.663.105c-.644.256-.474 1.033-.474 1.058 0 .722.982.624.986.624L40 16.802v.663H38.12c-.15 0-.297-.004-.442-.01a5.76 5.76 0 0 1-.425-.037 2.268 2.268 0 0 1-.404-.077 2.843 2.843 0 0 1-.38-.142 1.783 1.783 0 0 1-.375-.231 1.063 1.063 0 0 1-.244-.279c-.06-.1-.105-.202-.136-.306a1.245 1.245 0 0 1-.056-.35.2.2 0 0 1-.003-.034v-.03-.034a.737.737 0 0 1 .012-.129c.027-.243.098-.453.212-.632.114-.179.27-.325.466-.44.2-.114.451-.2.752-.256.3-.058.651-.086 1.052-.086L40 14.388zm-1.836-4.368s.34.458 1.318.713l-.012.012h-1.222s.018-.407-.084-.725zm.279 2.906v-1.65h5.67c1.25 0 .902-.604.902-.604s-.073-.233-.93-.233c-3.03 0-2.996-.017-3.88-.088 0 0-2.013-.262-2.11-1.573l6.587.043s3.09-.218 3.09 1.92c0 0 .257 2.231-3.334 2.185zm8.83.81v.646h-1.656v2.425h-1.253v-2.42h-1.636v-.651h4.546z" stroke-width=".132"/><path d="M6.59 17.862c-1.016-.273-1.542-.913-1.542-1.875 0-.755.247-1.193.917-1.624l.342-.22H5.278V6.386h4.21l.981 1.882c.54 1.034.998 1.864 1.018 1.844.02-.02.458-.84.973-1.823l.936-1.787 2.124-.02 2.125-.02.01.519.058 2.61.047 2.091 1.721-2.648 1.721-2.647h3.024l1.76 2.648c.968 1.456 1.785 2.649 1.817 2.65.032 0 .058-.05.058-.113 0-.096.144-.116.825-.118l.826-.003-.553-.26c-.694-.325-1.191-.819-1.37-1.358-.192-.577-.128-1.47.137-1.919.266-.45.627-.783 1.114-1.027.786-.392 1.148-.426 5.146-.476l3.707-.047.002.799.002.798.17-.23c.45-.611 1.037-.948 1.992-1.145.493-.102 1.205-.122 4.244-.122h3.652V9.074h-.745c-.792 0-.828.044-.218.27.504.185 1.056.71 1.27 1.208.143.331.166.499.139 1.016-.053 1.003-.477 1.624-1.456 2.13l-.411.212.71.002.71.001v1.69h-1.612V17.984H43.837v-2.38h-1.689v-1.46h-1.69v1.363l-.24.048c-.132.027-.788.048-1.458.048h-1.218l-.047.186c-.117.466-.127.463 1.466.515.802.026 1.467.052 1.477.057.011.006.02.376.02.824v.814l-1.786-.031c-1.65-.029-1.821-.045-2.247-.21-.856-.335-1.27-.927-1.264-1.81.01-1.133.703-1.788 2.097-1.978l.665-.09v-.56c0-.307-.027-.559-.06-.559s-.12.1-.192.223c-.182.308-.757.672-1.358.86-.435.136-1.942.284-3.018.297l-.211.003v3.852l-1.863-.025-1.863-.025-.485-.224c-.794-.367-1.167-.937-1.165-1.782.001-.704.316-1.179 1.123-1.696.114-.072-.196-.092-1.489-.096l-1.632-.004v2.685l-1.517.02-1.517.022-.023.556-.022.557h-2.24l.032-1.33c.03-1.219.049-1.36.221-1.708.205-.413.538-.68 1.01-.806.491-.133 1.504-.225 2.462-.226.496 0 .9-.027.897-.058-.003-.032-.152-.3-.33-.596l-.324-.537-1.686-.019-1.687-.019-.407.73-.408.729H18.182v2.688H15.11v1.152h-2.245l.033-1.325c.043-1.703.183-2.074.91-2.402l.303-.137v-.91c0-.5-.015-.91-.035-.91-.02 0-.247.415-.505.922l-.47.922h-2.753v3.84l-1.671-.005c-1.208-.004-1.786-.036-2.087-.117zm3.297-.684v-.346l-1.018-.003c-.56-.002-1.171-.033-1.359-.07-.306-.059-.542-.234-.542-.402 0-.035.657-.063 1.46-.063h1.459v-.768H6.934l.172-.172c.164-.164.244-.175 1.477-.198l1.304-.024v-.758H8.754c-1.848.002-2.608.198-2.988.772-.347.524-.337 1.258.024 1.687.431.512 1.111.676 2.849.684l1.248.006zm4.762-.23v-.577h1.064c.585 0 1.277-.022 1.536-.05l.473-.048v-.67h-1.498c-.824 0-1.498-.03-1.498-.065s.073-.13.161-.211c.142-.128.324-.151 1.479-.185l1.317-.038.024-.365.023-.365h-1.214c-1.982.002-2.598.163-2.937.77-.164.295-.19.455-.221 1.357l-.035 1.022h1.326zm7.528 0v-.577h1.064c.585 0 1.276-.022 1.536-.05l.472-.048v-.67h-1.498c-.869 0-1.498-.03-1.498-.071 0-.04.092-.143.203-.23.186-.147.303-.16 1.498-.16h1.295v-.768h-1.21c-2.728.002-3.084.246-3.153 2.16l-.036.99h1.327zm10.37.23v-.346l-1.019-.003c-.56-.002-1.17-.033-1.358-.07-.307-.059-.543-.234-.543-.402 0-.035.657-.063 1.46-.063h1.46v-.768h-1.422c-.871 0-1.42-.029-1.42-.074 0-.042.101-.128.226-.192.174-.09.5-.118 1.42-.118h1.195v-.787l-1.402.039c-.995.027-1.517.075-1.801.165-.96.304-1.408 1.178-1.029 2.012.321.707 1.05.941 2.946.948l1.286.004zm7.45 0v-.346h-1.18c-1.643 0-1.816-.08-1.816-.835 0-.478.211-.755.653-.857.17-.039.765-.072 1.325-.073l1.018-.002v-.691l-1.018.003c-1.36.003-2.073.102-2.592.362-.585.292-.783.643-.75 1.327.029.615.213.91.728 1.158.52.252.747.28 2.268.29l1.364.01zm5.607-.884v-1.229H47.303l-.024-.326-.023-.326-2.286-.02-2.285-.021v.693h1.613v2.458h1.306zM9.81 13.867c0-.025-.199-.414-.442-.864l-.441-.818-.026.307c-.014.17-.003.558.026.864l.051.557h.416c.229 0 .416-.02.416-.046zm-1.383-.722c0-.253-.032-.46-.072-.46-.108 0-2.387.76-2.53.844-.081.047.347.073 1.239.075l1.363.002zm4.97-.676c.318-.604.557-1.12.53-1.147-.053-.053-2.038.384-3.441.757l-.9.24.275.547c.15.302.31.592.353.646.06.074.39.092 1.343.077l1.263-.021zm6.948.409l.41-.728h1.92l1.921-.001.418.728.417.729h4.987c5.407 0 5.528-.008 6.25-.428.831-.482 1.205-1.417.943-2.36-.118-.422-.636-.92-1.186-1.137-.455-.18-.5-.182-3.648-.204-1.754-.012-3.561.005-4.018.037l-.83.06.18.34c.512.965 1.486 1.23 4.55 1.238 1.849.005 2.212.064 2.255.363.02.137-.033.198-.247.288-.225.093-.802.113-3.306.113h-3.034l-.022.697-.022.697-1.229-1.822-1.228-1.82-.847.048c-.466.026-1.062.07-1.326.098l-.48.05.155.263c.085.144.154.277.154.296 0 .019-.38.034-.846.034h-.847l.127-.195c.07-.107.107-.215.081-.24-.025-.026-.667.032-1.426.129l-1.38.175-.985 1.505-.984 1.505-.02-1.325c-.02-1.18-.036-1.324-.15-1.324-.072 0-.637.093-1.256.206l-1.126.205-.049.69c-.027.38-.049.943-.049 1.254v.564h5.362zm25.339.65c.518-.098 1.2-.408 1.485-.675.58-.543.749-1.501.391-2.219-.223-.448-.59-.735-1.245-.972-.422-.152-.62-.16-4.375-.186l-3.932-.027.067.235c.162.564.658.962 1.56 1.25.415.134.779.16 2.789.203 2.455.053 2.6.077 2.55.425-.048.333-.231.352-3.498.353l-3.092.001v1.69h3.446c1.993 0 3.618-.033 3.854-.077zM7.181 12.92l1.239-.393-.033-.363c-.017-.2-.05-.775-.07-1.28-.045-1.066-.085-1.087.675.355l.514.974.555-.157c.306-.086 1.348-.356 2.317-.6l1.76-.443.252-.49.252-.489.003.447c.004.389.022.442.139.407.073-.021.566-.127 1.094-.235a102.58 102.58 0 0 0 1.133-.236l.173-.04V6.921l-1.735.02-1.734.02-1.12 2.135-1.118 2.133-.572-1.096L9.76 7.94l-.573-1.094H5.739v3.272c0 2.685.018 3.266.102 3.234.056-.021.659-.216 1.34-.433zm32.278-1.496c0-.017-.154-.084-.343-.148a3.33 3.33 0 0 1-.672-.343l-.329-.227.027.375.026.374h.646c.355 0 .645-.014.645-.03zm-18.396-1.66c1.234-.169 1.293-.19 1.5-.536.058-.096.098-.082.245.088l.175.202 1.248-.122c.687-.067 1.249-.15 1.249-.184s-.334-.563-.742-1.175l-.742-1.113h-2.553l-.977 1.485c-.538.816-.978 1.511-.978 1.544 0 .033.078.041.173.019.095-.022.726-.116 1.402-.208zm16.445-.582c-.049-.129-1.198-.158-1.198-.03 0 .041.06.076.134.077.074 0 .342.116.596.258l.46.257.025-.227a.935.935 0 0 0-.017-.335zm-6.837-.227c.215-.273.49-.298 3.548-.325l3.018-.028-.022-.858-.022-.859-2.995-.023c-3.2-.024-4.13.034-4.83.302-.787.3-1.302.899-1.402 1.627l-.046.332 1.334-.032c1.005-.024 1.354-.057 1.417-.136zm10.257-.13c.232-.172.258-.173 3.3-.196l3.066-.022v-1.76h-3.14c-3.426 0-4.063.055-4.904.426-.75.331-1.25.928-1.25 1.492v.232h1.347c1.277 0 1.36-.009 1.581-.172z" stroke-width=".077"/></g></svg><svg id="rain" data-name="Layer 1" width="68" height="68" viewBox="-2 -2 68 68" x="235.6" y="68"><defs><style>.hcls-1{fill:#d4953f}</style></defs><title>rain</title><path class="hcls-1" d="M36 0a20.42 20.42 0 0 0-20 16A16 16 0 0 0 0 32a15.4 15.4 0 0 0 4.27 10.72A11.88 11.88 0 0 1 12 40a10.51 10.51 0 0 1 4.47 1A12 12 0 0 1 28 32a12.06 12.06 0 0 1 11.51 9A11.84 11.84 0 0 1 44 40a11.94 11.94 0 0 1 11 7.52A12.07 12.07 0 0 0 64 36c0-5.2-3.36-10.32-8-12v-4A20 20 0 0 0 36 0zm-9.27 40A4 4 0 0 0 24 44v16a4 4 0 1 0 8 0V44a4 4 0 0 0-4.71-4h-.56zm-16 8A4 4 0 0 0 8 52v8a4 4 0 1 0 8 0v-8a4 4 0 0 0-4.71-4h-.54zm32 0A4 4 0 0 0 40 52v8a4 4 0 1 0 8 0v-8a4 4 0 0 0-4.71-4h-.58z" transform="translate(-.04)"/></svg><svg id="star" data-name="Layer 1" width="68" height="68" viewBox="-2 -2 68 68" x="235.6"><defs><style>.icls-1{fill:#d4953f}</style></defs><title>star</title><path class="icls-1" d="M32 0l-8 24H0l20 16-8 24 20-16 20 16-8-24 20-16H40z"/></svg><svg id="twitter" data-name="Layer 1" width="55.78" height="46.06" viewBox="-2 -2 55.78 46.06" x="235.6" y="136"><defs><style>.jcls-1{fill:#fff}</style></defs><title>twitter</title><path class="jcls-1" d="M51.78 5a22.23 22.23 0 0 1-5.32 5.52v1.38a30.15 30.15 0 0 1-1.25 8.53 30.81 30.81 0 0 1-3.76 8.13 32.1 32.1 0 0 1-6.06 6.92 27 27 0 0 1-8.48 4.8 31 31 0 0 1-10.62 1.8A29.47 29.47 0 0 1 0 37.29a22.71 22.71 0 0 0 2.56.13 20.78 20.78 0 0 0 13.17-4.53 10.63 10.63 0 0 1-9.92-7.36 13.45 13.45 0 0 0 2 .16 11 11 0 0 0 2.79-.36 10.44 10.44 0 0 1-6.09-3.67 10.25 10.25 0 0 1-2.41-6.75v-.13a10.52 10.52 0 0 0 4.8 1.34 10.6 10.6 0 0 1-3.45-3.78 10.34 10.34 0 0 1-1.28-5.07 10.4 10.4 0 0 1 1.45-5.33 30.08 30.08 0 0 0 9.71 7.83A29.57 29.57 0 0 0 25.53 13a11.79 11.79 0 0 1-.26-2.43 10.23 10.23 0 0 1 3-7.48 10.64 10.64 0 0 1 15 0l.21.22A20.81 20.81 0 0 0 50.33.8a10.3 10.3 0 0 1-4.67 5.85A21.14 21.14 0 0 0 51.78 5z"/></svg><svg id="wifi" data-name="Layer 1" width="64" height="68" viewBox="-2 -2 64 68" y="116.24000000000001"><defs><style>.kcls-1{fill:#d4953e}</style></defs><title>wifi</title><path class="kcls-1" d="M29.88 0A55.39 55.39 0 0 0 0 8.72l4.22 6.48a47.32 47.32 0 0 1 25.66-7.28 47.31 47.31 0 0 1 25.9 7.28L60 8.72A55.53 55.53 0 0 0 29.88 0zm0 24a31.08 31.08 0 0 0-17 5l4.22 6.72A23.09 23.09 0 0 1 29.8 32a24.17 24.17 0 0 1 13 3.76L47 29a32.37 32.37 0 0 0-17.2-5h.07zm0 24a8 8 0 1 0 8 8 8 8 0 0 0-8-8z"/></svg><svg id="youtube" data-name="Layer 1" width="38.75" height="46" viewBox="-2 -2 38.75 46" x="192.82999999999998" y="68"><defs><style>.lcls-1{fill:#fff}</style></defs><title>youtube</title><path class="lcls-1" d="M22.13 29.15v5q0 1.57-.91 1.57a1.5 1.5 0 0 1-1.06-.52v-7.11a1.5 1.5 0 0 1 1.06-.54q.91 0 .91 1.6zm7.92 0v1.08h-2.1v-1.06q0-1.59 1.06-1.59t1 1.59zM7.42 24h2.5v-2.14h-7.3v2.2h2.46V37.4h2.34V24zm6.75 13.4h2.09V25.82h-2.09v8.86a1.86 1.86 0 0 1-1.31 1 .48.48 0 0 1-.49-.47 6.52 6.52 0 0 1 0-.82v-8.57h-2.14V35a5.79 5.79 0 0 0 .19 1.71 1.26 1.26 0 0 0 1.36.87 3.43 3.43 0 0 0 2.39-1.43v1.25zm10.05-3.47v-4.6A8.33 8.33 0 0 0 24 27a1.63 1.63 0 0 0-1.67-1.31A2.82 2.82 0 0 0 20.16 27v-5.1h-2.08v15.5h2.09v-1.13a2.91 2.91 0 0 0 2.18 1.31A1.62 1.62 0 0 0 24 36.27a8.61 8.61 0 0 0 .22-2.35zm7.92-.24v-.3H30a11.6 11.6 0 0 1 0 1.43.9.9 0 0 1-.94.85q-1.08 0-1.08-1.61V32h4.19v-2.41a4.65 4.65 0 0 0-.66-2.72 3.2 3.2 0 0 0-5 0 4.52 4.52 0 0 0-.66 2.72v4.05a4.4 4.4 0 0 0 .66 2.72 3 3 0 0 0 2.49 1.2 2.9 2.9 0 0 0 3-2.51 10.31 10.31 0 0 0 .09-1.36zM17.89 12.3V7.38q0-1.61-1-1.61t-1 1.61v4.92q0 1.64 1 1.64t1-1.64zm16.85 17.6a40.6 40.6 0 0 1-.61 8.2 4.45 4.45 0 0 1-1.36 2.32 4.1 4.1 0 0 1-2.39 1.08 125.31 125.31 0 0 1-13 .49 125.31 125.31 0 0 1-13-.49A4.15 4.15 0 0 1 2 40.42 4.28 4.28 0 0 1 .63 38.1 39.76 39.76 0 0 1 0 29.9a40.6 40.6 0 0 1 .61-8.2A4.45 4.45 0 0 1 2 19.37a4.25 4.25 0 0 1 2.41-1.1q4.29-.47 13-.47t13 .47a4.4 4.4 0 0 1 3.75 3.42 39.76 39.76 0 0 1 .58 8.21zM11.35 0h2.39l-2.83 9.35v6.35H8.57V9.35a39.68 39.68 0 0 0-1.43-5Q6.27 2 5.61 0H8.1l1.67 6.16zM20 7.8v4.1a4.59 4.59 0 0 1-.66 2.76 2.88 2.88 0 0 1-2.49 1.19 2.9 2.9 0 0 1-2.46-1.19 4.68 4.68 0 0 1-.66-2.76V7.8a4.59 4.59 0 0 1 .66-2.74 2.9 2.9 0 0 1 2.46-1.19 2.88 2.88 0 0 1 2.49 1.19A4.59 4.59 0 0 1 20 7.8zM27.87 4v11.7h-2.13v-1.27a3.37 3.37 0 0 1-2.41 1.45A1.31 1.31 0 0 1 22 15a6 6 0 0 1-.19-1.76V4h2.13v8.6a6.14 6.14 0 0 0 0 .82.49.49 0 0 0 .47.52 1.87 1.87 0 0 0 1.31-1V4h2.16z"/></svg></svg>