<?xml version="1.0" encoding="UTF-8" standalone="no"?>
<!-- Created with Inkscape (http://www.inkscape.org/) -->

<svg
   xmlns:dc="http://purl.org/dc/elements/1.1/"
   xmlns:cc="http://creativecommons.org/ns#"
   xmlns:rdf="http://www.w3.org/1999/02/22-rdf-syntax-ns#"
   xmlns:svg="http://www.w3.org/2000/svg"
   xmlns="http://www.w3.org/2000/svg"
   xmlns:sodipodi="http://sodipodi.sourceforge.net/DTD/sodipodi-0.dtd"
   xmlns:inkscape="http://www.inkscape.org/namespaces/inkscape"
   width="43.285019mm"
   height="11.70388mm"
   viewBox="0 0 43.285019 11.703881"
   version="1.1"
   id="svg4619"
   inkscape:version="0.92.0 r15299"
   sodipodi:docname="me-logo.svg">
  <defs
     id="defs4613" />
  <sodipodi:namedview
     id="base"
     pagecolor="#ffffff"
     bordercolor="#666666"
     borderopacity="1.0"
     inkscape:pageopacity="0.0"
     inkscape:pageshadow="2"
     inkscape:zoom="3.4446203"
     inkscape:cx="155.60496"
     inkscape:cy="-17.332538"
     inkscape:document-units="mm"
     inkscape:current-layer="layer1"
     showgrid="false"
     inkscape:window-width="1680"
     inkscape:window-height="987"
     inkscape:window-x="-8"
     inkscape:window-y="-8"
     inkscape:window-maximized="1"
     fit-margin-top="0"
     fit-margin-left="0"
     fit-margin-right="0"
     fit-margin-bottom="0" />
  <metadata
     id="metadata4616">
    <rdf:RDF>
      <cc:Work
         rdf:about="">
        <dc:format>image/svg+xml</dc:format>
        <dc:type
           rdf:resource="http://purl.org/dc/dcmitype/StillImage" />
        <dc:title />
      </cc:Work>
    </rdf:RDF>
  </metadata>
  <g
     inkscape:label="Layer 1"
     inkscape:groupmode="layer"
     id="layer1"
     transform="translate(-5.0272887,-6.3102016)">
    <path
       inkscape:connector-curvature="0"
       d="m 48.300077,11.149381 c 0,0 0.0099,-1.5740772 -1.991788,-2.0632119 h 1.545164 l -0.01347,-2.7212003 -6.841551,-0.00832 C 38.013194,6.5665628 37.933189,7.841878 37.761167,7.841878 V 6.3225895 c -1.521137,-0.030627 -2.803977,0.00464 -3.808255,0.00898 -3.246113,0.013732 -4.002324,0.1211943 -4.002324,0.1211943 -2.41399,0.4773854 -2.517098,2.1041381 -2.485281,2.6291824 v 3.962e-4 c 0.0063,0.1037677 0.01782,0.1647612 0.01782,0.1647612 0.0051,0.1042961 0.01743,0.2039711 0.03604,0.2991579 l 1.31e-4,0.00135 v 0 c 0.28226,1.4378325 2.00618,1.8400975 2.00618,1.8400975 h -1.682994 v 0.27777 L 26.465784,9.6005179 26.170851,9.1581186 24.280322,6.3224567 h -3.05574 l -2.422175,3.7207253 c 0,0 0,0 0,0 l -0.246086,0.378106 -0.796476,1.223563 -0.0026,-1.098012 v 0 l -3.92e-4,-0.160008 -0.0095,-4.0284651 -4.299369,0.013732 L 11.507895,10.080281 9.5554489,6.3545388 5.272713,6.331566 v 7.794342 h 1.0539174 c -0.021386,0.0083 -0.043171,0.01584 -0.06403,0.02456 -0.1758509,0.07353 -0.3410083,0.167665 -0.4950755,0.282919 -0.1172339,0.08898 -0.2206059,0.184434 -0.3099836,0.286617 -0.08951,0.102184 -0.1618567,0.210836 -0.2174374,0.32609 -0.061653,0.115254 -0.1078602,0.229187 -0.1387532,0.341668 -0.030892,0.112746 -0.052544,0.229055 -0.064822,0.34959 -0.00621,0.02086 -0.00924,0.04053 -0.00924,0.05875 0,0.01848 0,0.03538 0,0.05109 0,0.0053 0,0.0132 0,0.02363 0,0.01043 0,0.01848 0,0.02363 0,0.01043 0,0.01954 0,0.02746 0,0.0079 0,0.01703 0,0.02746 0,0.01571 0,0.03023 0,0.0433 0,0.01307 0,0.02482 0,0.03538 0,0.01558 0,0.03023 0,0.04304 0,0.0132 0,0.02495 0,0.03551 0.01228,0.125684 0.033796,0.247274 0.064822,0.365168 0.030762,0.118026 0.074064,0.237108 0.1295122,0.357511 0.061521,0.115254 0.137169,0.226546 0.2266784,0.333747 0.089378,0.107332 0.1957859,0.205555 0.3192251,0.294537 0.1540672,0.115122 0.3192246,0.209516 0.4950755,0.282787 0.1758509,0.0734 0.3654321,0.128456 0.569007,0.165026 0.2035754,0.03657 0.4100548,0.06284 0.6199672,0.07855 0.2096481,0.01558 0.4224645,0.0235 0.6385816,0.0235 h 2.3502243 v -3.881394 h 2.708659 l 0.990283,-1.910992 -0.04977,1.867822 c -0.04581,0.01373 -0.08964,0.02812 -0.131755,0.04304 -0.198955,0.0709 -0.358304,0.155784 -0.475669,0.255855 -0.201595,0.171759 -0.351571,0.398833 -0.449793,0.681092 -0.09835,0.282524 -0.120138,0.62208 -0.120138,1.018933 l -0.0017,1.906107 2.288437,0.0017 0.0078,-1.182505 3.053891,-0.0078 v -2.673409 -0.02548 l 1.984396,-7.98e-4 0.824202,-1.46054 h 3.273045 l 0.708816,1.223696 -1.379083,0.0037 c -0.683336,0 -1.24627,0.04278 -1.68867,0.128852 -0.18496,0.03591 -0.34761,0.07974 -0.490323,0.130568 -0.198954,0.0709 -0.358303,0.155784 -0.475669,0.255855 -0.201595,0.171758 -0.35157,0.398833 -0.449793,0.681092 -0.09835,0.282524 -0.120138,0.622079 -0.120138,1.018932 l -0.0017,1.906108 2.288439,0.0017 0.0078,-1.182505 3.053891,-0.0078 v -2.672875 l 3.209939,0.0029 c -0.02205,0.0083 -0.04436,0.01624 -0.06588,0.02508 -0.175851,0.07353 -0.340876,0.167666 -0.495076,0.28292 -0.117234,0.08898 -0.220605,0.184432 -0.309983,0.286615 -0.08951,0.102184 -0.161989,0.210837 -0.217437,0.32609 -0.06179,0.115254 -0.107993,0.229055 -0.138886,0.341668 -0.03089,0.112746 -0.05241,0.228924 -0.06469,0.349458 -0.0063,0.02099 -0.0092,0.04066 -0.0092,0.05888 0,0.01848 0,0.03538 0,0.05109 0,0.0053 0,0.0132 0,0.02363 0,0.01043 0,0.01848 0,0.02363 0,0.01043 0,0.01954 0,0.02746 0,0.0079 0,0.01703 0,0.02746 0,0.01571 0,0.03023 0,0.0433 0,0.01307 0,0.02482 0,0.03538 0,0.01558 0,0.03023 0,0.04304 0,0.0132 0,0.02495 0,0.03551 0.01228,0.125683 0.03379,0.247274 0.06482,0.365168 0.03076,0.118026 0.07406,0.237108 0.129511,0.357511 0.06152,0.115253 0.137302,0.226546 0.226679,0.333747 0.08938,0.107332 0.195786,0.205555 0.319225,0.294537 0.154068,0.115122 0.319225,0.209516 0.495076,0.282787 0.175852,0.0734 0.365564,0.128456 0.569139,0.165026 0.203576,0.03657 0.410055,0.06284 0.619967,0.07855 0.209649,0.01558 0.422332,0.0235 0.63845,0.0235 h 2.350223 v -3.884562 c 0.0078,-2.65e-4 0.01545,-5.49e-4 0.02337,-7.99e-4 0.43316,-0.01294 1.355584,-0.04172 1.923932,-0.06984 2.417554,-0.118686 2.843846,-1.382648 2.843846,-1.382648 l -0.0077,1.162702 c -0.360019,0.01373 -0.683468,0.05004 -0.969952,0.109313 -0.222718,0.04634 -0.422728,0.106804 -0.601087,0.180471 -0.119479,0.04951 -0.229451,0.104957 -0.328995,0.166874 -0.243181,0.154464 -0.435271,0.35223 -0.576268,0.593299 -0.14113,0.241333 -0.228659,0.525836 -0.262588,0.854038 -0.0049,0.02706 -0.0084,0.05492 -0.01096,0.08383 -0.0026,0.02891 -0.0037,0.05888 -0.0037,0.08977 0,0.01545 0,0.03089 0,0.04647 0,0.01558 0,0.02891 0,0.04053 0,0.01545 10e-4,0.03089 0.0037,0.04634 0.0024,0.01545 0.0035,0.03089 0.0035,0.04634 0.0047,0.142846 0.02667,0.284636 0.06562,0.425633 0.03881,0.140734 0.09492,0.278695 0.167797,0.413884 0.07301,0.135056 0.173739,0.260475 0.302723,0.376257 0.128851,0.115782 0.283315,0.220078 0.463126,0.312624 0.15552,0.07723 0.312492,0.140865 0.470389,0.191033 0.157895,0.05017 0.324637,0.08489 0.499696,0.104164 0.170174,0.02324 0.30457,0.04119 0.484118,0.05585 0.11763,0.0096 0.403189,0.04119 0.58815,0.04119 h 2.326856 v -1.747948 l -2.83421,-0.02204 c -0.203575,0 -0.201595,-0.254931 -0.172682,-0.411771 0.03908,-0.212025 0.126739,-0.296254 0.596731,-0.264965 l 2.410161,-0.01294 v -1.428459 h 1.65989 v 1.465424 h 1.636522 l 0.0033,2.422307 h 2.364482 l -0.01056,-2.422307 h 1.611703 l 0.0088,-1.465424 0.0017,-0.273546 H 46.416478 C 48.584514,13.101086 48.30001,11.1493 48.30001,11.1493 Z M 37.605649,9.7495704 c 0,0 -0.518048,-0.4682756 -1.289442,-0.647031 l 1.191086,-0.0062 c 1.32e-4,0 0.02654,0.536926 0.09836,0.6532358 z M 31.117648,6.8707379 h 6.115837 v 1.6695277 c 0,0 -1.943734,0 -3.603493,0 -1.848283,0 -2.928076,0.00225 -2.959233,0.4594303 -0.268265,-0.00145 -1.236369,-0.00135 -2.676313,0.058485 0.03842,-2.3339849 3.123202,-2.1874427 3.123202,-2.187443 z m -9.603678,0.016636 h 2.479471 l 1.556387,2.3168228 c -0.77826,0.061125 -1.634806,0.1415251 -2.562512,0.2474049 L 22.68763,8.9866267 22.354147,9.5263255 C 21.46301,9.6356382 20.511541,9.7681862 19.507395,9.9283269 Z M 5.7949851,13.565219 v -0.03419 c 0.3597553,-0.135193 1.2564365,-0.459698 2.6219214,-0.869753 l 0.039209,0.903942 z m 4.1182386,1.484436 H 7.81265 c -0.255327,0.0028 -0.4970561,0.09783 -0.5988438,0.160404 -0.1017877,0.06245 -0.227867,0.224303 -0.2355242,0.338104 l 2.9348095,-0.0043 v 0.700103 l -2.9741511,-0.0067 c 0,0.03485 0.097695,0.373354 0.3060227,0.443324 0.1561799,0.05241 0.5634621,0.11433 0.5634621,0.11433 l 2.0948969,-0.0018 0.002,0.659045 -1.8896056,0.0084 c -0.1487865,0 -0.3144718,-0.01016 -0.4591658,-0.0173 -0.144831,-0.0072 -0.6788529,-0.09499 -0.8058562,-0.131824 C 6.6234267,17.274607 6.4973474,17.227608 6.3720605,17.170839 6.2272343,17.102717 6.102871,17.026013 5.9992351,16.94086 5.8954675,16.855707 5.814275,16.763425 5.7555263,16.664014 5.6969093,16.564603 5.6517581,16.463211 5.6206012,16.359443 c -0.031291,-0.103636 -0.048979,-0.207932 -0.052808,-0.31302 0,-0.01135 -8.982e-4,-0.02271 -0.00289,-0.0342 -0.002,-0.01122 -0.00289,-0.02257 -0.00289,-0.03406 0,-0.0086 0,-0.01848 0,-0.02984 0,-0.01135 0,-0.02271 0,-0.03406 0,-0.02284 9.48e-4,-0.04489 0.00289,-0.06614 0.002,-0.02126 0.00489,-0.04185 0.00885,-0.06179 0.027329,-0.241332 0.097695,-0.450716 0.2113643,-0.628284 0.1134053,-0.177435 0.268001,-0.322921 0.4637869,-0.436591 0.1996145,-0.113537 0.449133,-0.19869 0.7484225,-0.255723 0.2994219,-0.05677 0.6487477,-0.08515 1.0478446,-0.08515 l 1.868218,-0.0042 v 0.673303 z m -0.9707449,-2.913686 0.084229,0.160272 0.053733,0.102184 0.7570039,1.440077 -0.822354,0.0018 -0.061521,-1.441661 -0.00329,-0.07987 v 0 z m 3.8774332,1.42925 H 10.323938 L 9.6502395,12.305351 C 10.861261,11.969227 12.324044,11.601419 14.01047,11.245097 Z M 9.562446,12.141118 8.2909595,9.7634334 8.4091175,12.480938 c -0.8572074,0.258627 -1.728937,0.536134 -2.6141324,0.834367 V 6.8707379 h 3.437674 L 11.513704,11.251036 13.79475,6.9038752 h 3.421566 v 3.4227558 c -0.806511,0.151824 -1.640482,0.321469 -2.49901,0.510258 l 0.03644,-1.0404514 -0.598315,1.1660024 c -1.466351,0.333219 -3.001614,0.723075 -4.592985,1.178678 z m 8.176142,4.121538 -3.068017,0.0026 -0.0051,1.196763 h -1.22924 v -1.428458 c 0,-0.300214 0.03921,-0.557126 0.118025,-0.770602 0.07869,-0.213477 0.198559,-0.385235 0.36002,-0.515011 0.161196,-0.129776 0.419032,-0.227339 0.77311,-0.292293 0.354078,-0.06495 0.804531,-0.07221 1.351491,-0.07221 l 1.680485,-0.009 -0.0041,0.672379 -1.949542,-0.005 c -0.236052,0.0028 -0.525573,0.03815 -0.673303,0.09043 -0.163573,0.05783 -0.399229,0.323845 -0.407018,0.462467 h 3.053231 z m 7.535185,0 -3.067885,0.0026 -0.0051,1.196763 h -1.22924 v -1.428458 c 0,-0.300214 0.03934,-0.557126 0.118026,-0.770602 0.07868,-0.213477 0.19869,-0.385235 0.360019,-0.515011 0.161329,-0.129776 0.419032,-0.227339 0.77311,-0.292293 0.354078,-0.06495 0.804531,-0.07221 1.351491,-0.07221 l 1.680485,-0.009 -0.0041,0.672379 -1.949543,-0.005 c -0.236052,0.0028 -0.525573,0.03815 -0.673303,0.09043 -0.163573,0.05783 -0.399097,0.323845 -0.407018,0.462467 h 3.052967 v 0.66789 z m 7.316692,-1.208777 h -2.100573 c -0.255196,0.0028 -0.497056,0.09783 -0.598712,0.160405 -0.101787,0.06245 -0.227735,0.224302 -0.235524,0.338103 l 2.934809,-0.0043 v 0.700104 l -2.974151,-0.0067 c 0,0.03485 0.09756,0.373352 0.306023,0.443323 0.15618,0.05241 0.563462,0.11433 0.563462,0.11433 l 2.095029,-0.0018 0.002,0.659045 -1.889605,0.0084 c -0.148787,0 -0.314472,-0.01016 -0.459167,-0.01743 -0.144826,-0.007 -0.678847,-0.09479 -0.805983,-0.131624 -0.127136,-0.03683 -0.253346,-0.08383 -0.378635,-0.140602 -0.144825,-0.06812 -0.269189,-0.144826 -0.372824,-0.229979 -0.103768,-0.08515 -0.184828,-0.177435 -0.243577,-0.276846 -0.05875,-0.09941 -0.103636,-0.200803 -0.135057,-0.304571 -0.03129,-0.103636 -0.04898,-0.207932 -0.05268,-0.31302 0,-0.01135 -0.001,-0.02271 -0.003,-0.03419 -0.002,-0.01122 -0.0028,-0.02257 -0.0028,-0.03406 0,-0.0086 0,-0.01848 0,-0.02984 0,-0.01135 0,-0.02271 0,-0.03406 0,-0.02284 9.48e-4,-0.04489 0.0028,-0.06614 0.0018,-0.02126 0.005,-0.04185 0.0088,-0.06179 0.02733,-0.241334 0.09783,-0.450718 0.211365,-0.628284 0.113537,-0.177568 0.268132,-0.322922 0.463786,-0.436591 0.199615,-0.113538 0.449001,-0.198691 0.748423,-0.255723 0.299422,-0.05677 0.648615,-0.08515 1.047844,-0.08515 l 1.868218,-0.0043 v 0.673435 z m 5.105882,-3.620918 c 0,2.31405 -3.140101,2.132258 -3.140101,2.132258 h -9.041668 l -0.876086,-1.471233 h -3.851425 l -0.859452,1.471233 h -5.305892 l 0.08647,-2.464156 c 0.791857,-0.159745 1.628733,-0.315925 2.508252,-0.464448 v 2.763315 l 2.032583,-3.080295 c 0.908167,-0.130172 1.854091,-0.25031 2.835397,-0.3571149 l -0.30589,0.4950759 1.867822,0.0165 -0.405699,-0.6294725 c 0.843345,-0.079872 1.710718,-0.149315 2.600798,-0.2063477 l 2.548783,3.7945252 v -1.520742 c 0,0 4.628231,0 5.669607,0 1.041375,0 0.942096,-0.462863 0.942096,-0.462863 0.08264,-0.479365 -1.999974,-0.39672 -1.999974,-0.39672 -2.314182,0.08251 -3.008344,-0.09928 -3.008344,-0.09928 -1.443773,-0.227998 -1.853828,-0.9547694 -1.965121,-1.4271385 1.502522,-0.060069 3.237663,-0.1020516 4.8124,-0.080268 1.060519,0.033796 2.111663,0.00329 2.111663,0.00329 3.05772,2.64e-4 2.743777,1.9838675 2.743777,1.9838675 z m 3.453648,-4.5766121 h 6.141976 v 1.7018722 c 0,0 -4.644866,0 -5.553429,0 -0.908564,0 -0.985267,0.3837829 -0.985267,0.3837829 h -2.712619 c -0.05122,-2.0216252 3.10934,-2.0856551 3.109339,-2.0856551 z m -1.149895,8.1724471 -1.863993,-0.0067 c -0.267474,0.003 -0.495604,0.03855 -0.663139,0.10522 -0.643597,0.255988 -0.473688,1.032927 -0.473688,1.057218 0,0.722415 0.981306,0.624588 0.985266,0.624588 l 2.015553,-0.0074 v 0.66327 h -1.881288 c -0.149447,0 -0.296914,-0.0035 -0.442268,-0.01069 -0.145618,-0.0073 -0.287011,-0.01928 -0.424577,-0.03644 -0.141525,-0.01426 -0.276318,-0.04013 -0.403982,-0.0771 -0.127662,-0.0371 -0.254533,-0.08436 -0.380349,-0.141394 -0.145487,-0.06865 -0.270378,-0.14575 -0.37441,-0.231431 -0.104295,-0.08581 -0.185752,-0.178756 -0.244633,-0.278563 -0.05914,-0.100203 -0.104295,-0.202123 -0.135717,-0.306419 -0.03142,-0.104296 -0.04924,-0.209384 -0.05307,-0.315132 0,-0.01135 -9.48e-4,-0.02284 -0.003,-0.03419 -0.002,-0.01149 -0.0029,-0.02297 -0.0029,-0.03459 0,-0.0083 0,-0.01848 0,-0.02997 0,-0.01135 0,-0.02284 0,-0.03419 0,-0.02284 9.48e-4,-0.04502 0.0029,-0.06654 0.0021,-0.02139 0.005,-0.04211 0.009,-0.06205 0.02746,-0.242917 0.09822,-0.453754 0.212289,-0.632245 0.113934,-0.178755 0.269188,-0.324902 0.465899,-0.439363 0.200538,-0.114197 0.451112,-0.200143 0.751854,-0.257044 0.300743,-0.0573 0.651652,-0.08581 1.052599,-0.08581 l 1.851715,-0.0042 z m -1.835741,-4.368285 c 0,0 0.339951,0.45811 1.317298,0.713833 l -0.01149,0.01149 h -1.221716 c -1.31e-4,0 0.01716,-0.406622 -0.0841,-0.725319 z m 0.278431,2.906557 V 11.91721 h 5.670135 c 1.249836,0 0.901698,-0.604388 0.901698,-0.604388 0,0 -0.07274,-0.23262 -0.930478,-0.23262 -3.028412,6.49e-4 -2.994879,-0.01742 -3.878886,-0.08819 0,0 -2.012912,-0.262324 -2.111003,-1.5730213 l 6.587412,0.042513 c 0,0 3.091253,-0.2173052 3.091253,1.9211573 0,0 0.255723,2.230746 -3.334698,2.184407 z m 8.830963,0.809943 v 0.646371 H 45.616899 V 17.4478 h -1.252475 v -2.419005 h -1.636523 v -0.651916 h 4.545852 z"
       id="path4014"
       style="opacity:1;fill:#ffffff;fill-opacity:1;stroke:none;stroke-width:0.13202019;stroke-opacity:1" />
    <path
       style="opacity:1;fill:#ffffff;fill-opacity:1;stroke:none;stroke-width:0.07681101;stroke-opacity:1"
       d="M 6.5901846,17.862258 C 5.5738378,17.589006 5.0477062,16.949431 5.0477062,15.987194 c 0,-0.755315 0.2471487,-1.192699 0.9175724,-1.623845 L 6.3067653,14.14374 H 5.7924529 5.2781405 V 10.264804 6.3858687 h 2.1051499 2.10515 l 0.9810126,1.8809561 c 0.539557,1.0345259 0.997561,1.8644082 1.017787,1.8441822 0.02023,-0.02023 0.457922,-0.8407342 0.972656,-1.8233494 l 0.93588,-1.7865731 2.124502,-0.020418 2.124501,-0.020418 0.01028,0.5196865 c 0.0057,0.2858277 0.03158,1.4605166 0.05761,2.6104199 l 0.04733,2.0907331 1.721175,-2.6476101 1.721173,-2.6476099 h 1.512075 1.512076 l 1.759493,2.6479793 c 0.967721,1.4563887 1.785416,2.6488737 1.817101,2.6499657 0.03168,0.0011 0.05761,-0.04986 0.05761,-0.113229 0,-0.0951 0.14418,-0.115698 0.825723,-0.117975 l 0.825723,-0.0028 -0.553632,-0.259786 c -0.693269,-0.325263 -1.190927,-0.8186 -1.37016,-1.3582142 -0.191477,-0.5764789 -0.12753,-1.4701838 0.13729,-1.9186998 0.266243,-0.4509265 0.626933,-0.783243 1.114291,-1.0266364 0.786425,-0.392751 1.148019,-0.4262551 5.146469,-0.4768547 l 3.706153,-0.046901 0.0024,0.7988843 0.0024,0.7988842 0.169896,-0.2304317 c 0.45065,-0.6112685 1.036365,-0.9480073 1.991883,-1.1451949 0.492731,-0.1016837 1.204642,-0.1221796 4.24383,-0.1221796 h 3.651781 v 1.3057801 1.3057802 h -0.745072 c -0.791712,0 -0.827334,0.04411 -0.217235,0.2690017 0.504049,0.1857996 1.056042,0.7111128 1.270108,1.2087158 0.142523,0.3313 0.165338,0.499 0.138207,1.015908 -0.05267,1.00352 -0.476628,1.623858 -1.455319,2.12944 l -0.411701,0.212681 0.710506,0.0017 0.710506,0.0017 v 0.844917 0.844916 H 46.94823 46.141711 v 1.190564 1.190565 h -1.152172 -1.152172 v -1.190631 -1.190564 h -0.844924 -0.844927 v -0.729701 -0.7297 h -0.844924 -0.844926 v 0.681694 0.681694 l -0.240035,0.04801 c -0.132021,0.0264 -0.7881,0.04801 -1.457955,0.04801 h -1.217917 l -0.04667,0.185952 c -0.116953,0.465961 -0.126592,0.462576 1.465627,0.514532 0.802199,0.02618 1.467186,0.0521 1.477746,0.05761 0.01056,0.0055 0.01921,0.376178 0.01921,0.823712 v 0.813698 l -1.785865,-0.03079 c -1.649038,-0.02843 -1.821178,-0.04456 -2.246736,-0.210607 -0.856481,-0.33418 -1.270348,-0.92651 -1.263588,-1.808461 0.0087,-1.134224 0.702117,-1.788716 2.096579,-1.978864 l 0.664834,-0.09066 v -0.55906 c 0,-0.307483 -0.02712,-0.55906 -0.06025,-0.55906 -0.03314,0 -0.119602,0.10047 -0.192139,0.223266 -0.181528,0.3073 -0.756748,0.671451 -1.357392,0.859317 -0.435284,0.136145 -1.942073,0.284667 -3.018109,0.297491 l -0.211229,0.0025 v 1.926265 1.926264 l -1.862678,-0.0252 -1.862677,-0.0252 -0.484932,-0.2239 c -0.794902,-0.367017 -1.167455,-0.936535 -1.165763,-1.782087 0.0014,-0.703569 0.31621,-1.178576 1.123735,-1.695607 0.113191,-0.07247 -0.196462,-0.09244 -1.48934,-0.09601 l -1.632242,-0.0045 v 1.342562 1.342561 l -1.517026,0.02083 -1.517026,0.02082 -0.02257,0.556877 -0.02257,0.556877 h -1.120076 -1.120076 l 0.03293,-1.329661 c 0.0302,-1.219511 0.0485,-1.361078 0.220907,-1.708924 0.204539,-0.412685 0.537931,-0.679006 1.008693,-0.805768 0.491905,-0.132455 1.504788,-0.225407 2.46297,-0.226026 0.496394,-3.17e-4 0.899998,-0.02651 0.896897,-0.05819 -0.0031,-0.03169 -0.151471,-0.299562 -0.329712,-0.595283 l -0.324077,-0.537674 -1.686586,-0.01867 -1.686587,-0.01867 -0.407296,0.729165 -0.407295,0.729166 h -0.994514 -0.994512 v 1.344185 1.344185 h -1.536228 -1.536228 v 0.57608 0.576079 h -1.122479 -1.122477 l 0.03311,-1.324983 c 0.04256,-1.703096 0.183259,-2.074401 0.910266,-2.402232 l 0.303133,-0.136656 v -0.910064 c 0,-0.500534 -0.01595,-0.910062 -0.03544,-0.910062 -0.01949,0 -0.24691,0.414777 -0.505372,0.921727 L 13.10071,14.14374 h -1.376506 -1.376508 v 1.920264 1.920265 l -1.6706491,-0.0051 c -1.2075664,-0.0037 -1.7860172,-0.03607 -2.0868613,-0.116958 z m 3.2966411,-0.6845 V 16.83211 L 8.8690744,16.82881 C 8.309311,16.82691 7.6978284,16.7958 7.5102238,16.75959 7.2037601,16.70045 6.9679917,16.525206 6.9679917,16.356568 c 0,-0.03417 0.6567377,-0.06213 1.4594171,-0.06213 H 9.8868257 V 15.910384 15.526331 H 8.4103396 6.9338533 l 0.1726242,-0.172824 c 0.1632713,-0.163461 0.2432673,-0.174138 1.4764863,-0.197084 l 1.3038619,-0.02426 v -0.378995 -0.378995 l -1.1329683,6.09e-4 c -1.8478336,9.52e-4 -2.6081392,0.19721 -2.9880834,0.771339 -0.346942,0.524259 -0.3365645,1.258198 0.023846,1.686518 0.4314929,0.512794 1.1113865,0.67619 2.8490196,0.684691 l 1.2481855,0.0061 z m 4.7623083,-0.230432 v -0.576079 h 1.064092 c 0.58525,0 1.276554,-0.02221 1.536228,-0.04935 l 0.472137,-0.04935 v -0.334701 -0.334705 h -1.497824 c -0.823802,0 -1.497821,-0.02921 -1.497821,-0.06491 0,-0.0357 0.07263,-0.130752 0.161408,-0.211229 0.141512,-0.128286 0.323786,-0.151058 1.478619,-0.184729 l 1.317212,-0.0384 0.02341,-0.36485 0.02341,-0.364851 -1.213988,6.09e-4 c -1.982503,9.52e-4 -2.598219,0.162225 -2.936791,0.769245 -0.164607,0.29512 -0.190658,0.454889 -0.221252,1.356957 l -0.03468,1.022418 h 0.662916 0.662918 z m 7.527519,0 v -0.576079 h 1.064092 c 0.585251,0 1.276554,-0.02221 1.536229,-0.04935 l 0.472136,-0.04935 v -0.334706 -0.334705 h -1.497823 c -0.869195,0 -1.497823,-0.0299 -1.497823,-0.07124 0,-0.03918 0.09107,-0.142874 0.202388,-0.230432 0.186579,-0.146761 0.303573,-0.159196 1.497822,-0.159196 h 1.295436 v -0.384053 -0.384053 l -1.20978,6.09e-4 c -2.728646,0.0013 -3.084002,0.244734 -3.153159,2.159973 l -0.0357,0.988647 h 0.663092 0.663093 z m 10.369541,0.230432 V 16.83211 l -1.017752,-0.0033 c -0.559762,-0.0018 -1.171244,-0.03297 -1.358849,-0.06918 -0.306465,-0.05914 -0.542232,-0.23438 -0.542232,-0.403019 0,-0.03417 0.656737,-0.06213 1.459417,-0.06213 h 1.459416 v -0.384053 -0.384053 h -1.421011 c -0.871164,0 -1.421011,-0.02896 -1.421011,-0.07484 0,-0.04116 0.101979,-0.127573 0.226619,-0.192026 0.174631,-0.0903 0.500627,-0.117189 1.421012,-0.117189 h 1.194391 v -0.393437 -0.393437 l -1.401808,0.03859 c -0.995859,0.02741 -1.517534,0.07517 -1.801426,0.164899 -0.960583,0.303617 -1.407511,1.177777 -1.028657,2.01198 0.321121,0.707082 1.049597,0.941582 2.9453,0.948106 l 1.286591,0.0044 z m 7.450708,0 V 16.83211 h -1.179116 c -1.64376,0 -1.81653,-0.07947 -1.81653,-0.835583 0,-0.477498 0.211101,-0.754408 0.652898,-0.856439 0.168984,-0.03903 0.765235,-0.07178 1.324998,-0.07279 l 1.01775,-0.0018 v -0.345647 -0.345648 l -1.01775,0.0024 c -1.360367,0.0032 -2.072782,0.102798 -2.592386,0.362532 -0.584418,0.292132 -0.78285,0.642936 -0.750425,1.326649 0.02919,0.61543 0.214135,0.90942 0.72885,1.158587 0.51887,0.251178 0.747287,0.280408 2.268308,0.290262 l 1.363403,0.0088 z m 5.607234,-0.883322 v -1.228969 h 0.849343 0.849342 l -0.02363,-0.326445 -0.02363,-0.326445 -2.285142,-0.02035 -2.285137,-0.02035 v 0.34679 0.346791 h 0.806519 0.806519 v 1.228969 1.22897 h 0.652899 0.652895 z M 9.8100142,13.867108 c 0,-0.02541 -0.1987494,-0.414263 -0.4416654,-0.864119 L 8.926683,12.185069 8.900979,12.492312 c -0.014137,0.168983 -0.00254,0.557837 0.025757,0.864119 l 0.051461,0.556877 h 0.4159094 c 0.2287501,0 0.4159091,-0.02079 0.4159078,-0.0462 z M 8.4274088,13.145202 c 0,-0.253475 -0.032625,-0.460864 -0.072501,-0.460864 -0.1079903,0 -2.3864756,0.760546 -2.5303344,0.844612 -0.081073,0.04738 0.3478041,0.07325 1.2394327,0.07478 l 1.3634028,0.0023 z m 4.9704492,-0.67618 c 0.317571,-0.604251 0.555714,-1.120326 0.529207,-1.146833 -0.05326,-0.05326 -2.038243,0.383396 -3.441313,0.757016 l -0.898895,0.239365 0.2740888,0.547734 c 0.1507492,0.301254 0.3095612,0.591754 0.3529182,0.645556 0.05937,0.07367 0.3908,0.09263 1.34271,0.07681 l 1.263882,-0.02101 z m 6.946717,0.40896 0.411066,-0.728084 1.920286,-5.56e-4 1.920286,-5.56e-4 0.417482,0.72863 0.417484,0.72863 h 4.986634 c 5.407652,0 5.528245,-0.0083 6.250547,-0.427613 0.830853,-0.482387 1.204211,-1.41742 0.942411,-2.36017 C 37.493474,10.395874 36.974713,9.8982669 36.42517,9.6810133 35.969996,9.5010656 35.924925,9.4985444 32.776631,9.476919 31.023408,9.464875 29.215559,9.481679 28.759185,9.514256 l -0.829769,0.059232 0.179869,0.3396054 c 0.511746,0.9662026 1.485736,1.2314956 4.550113,1.2393476 1.848319,0.0047 2.211869,0.06313 2.2543,0.362115 0.0195,0.137419 -0.03293,0.198527 -0.247171,0.28804 -0.224432,0.09377 -0.801744,0.113616 -3.30556,0.113616 h -3.033636 l -0.02209,0.696651 -0.02208,0.696652 -1.228829,-1.821023 -1.22883,-1.8210245 -0.846581,0.048351 c -0.465619,0.026593 -1.062417,0.07091 -1.326216,0.098482 l -0.479633,0.050131 0.154688,0.2621755 c 0.08508,0.144196 0.154689,0.27748 0.154689,0.296189 0,0.01871 -0.381013,0.03401 -0.846697,0.03401 h -0.846698 l 0.127394,-0.194423 c 0.07006,-0.106933 0.106506,-0.215309 0.08098,-0.240838 -0.02553,-0.02553 -0.667617,0.03263 -1.426863,0.129247 l -1.38045,0.175658 -0.983898,1.504633 -0.983899,1.504633 -0.02102,-1.324239 c -0.01874,-1.180727 -0.035,-1.324239 -0.150089,-1.324239 -0.07099,0 -0.635754,0.09251 -1.255033,0.205579 l -1.125964,0.205578 -0.04894,0.689544 c -0.02692,0.379248 -0.04895,0.943469 -0.04895,1.253823 v 0.564279 h 2.680594 2.680592 z m 25.339471,0.650685 c 0.517851,-0.09821 1.199695,-0.408477 1.485236,-0.675848 0.579518,-0.54264 0.748467,-1.501273 0.391003,-2.218602 C 47.33671,10.185564 46.969155,9.898646 46.314998,9.6621241 45.893,9.5095458 45.694819,9.5011074 41.940482,9.4758667 l -3.932496,-0.02644 0.06727,0.234555 c 0.161832,0.5642653 0.657336,0.9617123 1.559542,1.2509183 0.414986,0.133025 0.779235,0.159448 2.789133,0.202319 2.454867,0.05236 2.600558,0.07663 2.550216,0.42472 -0.04822,0.333465 -0.231478,0.351963 -3.498626,0.35316 l -3.09166,0.0011 v 0.844916 0.844916 h 3.446031 c 1.993573,0 3.618049,-0.03262 3.854154,-0.0774 z m -38.5029575,-0.608386 1.238592,-0.393704 -0.032306,-0.36278 c -0.017767,-0.19953 -0.049668,-0.775285 -0.070889,-1.279457 -0.044889,-1.0664988 -0.08446,-1.0872599 0.6756846,0.354498 l 0.5135446,0.974033 0.5554103,-0.156495 c 0.305475,-0.08607 1.347858,-0.356137 2.316404,-0.600144 l 1.760994,-0.443649 0.251579,-0.489105 0.251578,-0.489105 0.0037,0.446837 c 0.0032,0.388525 0.02127,0.44167 0.138147,0.407241 0.07393,-0.02178 0.566484,-0.12788 1.094563,-0.235784 0.528077,-0.107904 1.037913,-0.21405 1.132967,-0.235881 l 0.172827,-0.03969 V 8.6488756 6.9206586 l -1.734593,0.020645 -1.734594,0.020645 -1.119074,2.1336597 -1.119073,2.1336607 -0.571961,-1.096717 C 10.590036,9.5293567 10.074836,8.5432862 9.7597278,7.9412832 L 9.1868019,6.8467322 H 7.4629054 5.7390089 v 3.2726688 c 0,2.684868 0.018274,3.265656 0.1017438,3.233626 0.05596,-0.02147 0.6591102,-0.216209 1.3403358,-0.432746 z M 39.459223,11.424184 c 0,-0.01715 -0.154283,-0.08375 -0.342852,-0.148005 -0.18857,-0.06425 -0.491013,-0.218817 -0.672101,-0.34348 l -0.329248,-0.226659 0.02662,0.374664 0.02662,0.374665 h 0.645482 c 0.355017,0 0.645485,-0.01403 0.645485,-0.03119 z M 21.062887,9.763758 c 1.233891,-0.1682972 1.293024,-0.1894157 1.500534,-0.5358974 0.0577,-0.096349 0.09772,-0.081995 0.244377,0.087662 l 0.175374,0.2028775 1.248186,-0.122109 c 0.686503,-0.06716 1.248186,-0.1500102 1.248186,-0.1841113 0,-0.034101 -0.333788,-0.5629949 -0.741754,-1.1753193 L 23.996037,6.9235428 h -1.27648 -1.276479 l -0.977412,1.484966 c -0.537577,0.8167314 -0.977413,1.5117738 -0.977413,1.5445387 0,0.032765 0.07777,0.041295 0.172825,0.018955 0.09505,-0.022339 0.725868,-0.11605 1.401809,-0.2082445 z M 37.508355,9.1821432 c -0.0494,-0.1287425 -1.1984,-0.1585539 -1.1984,-0.031093 0,0.042246 0.06049,0.077223 0.134419,0.077726 0.07393,5.027e-4 0.341811,0.1166254 0.59529,0.2580479 l 0.460867,0.2571321 0.02461,-0.2269545 c 0.01355,-0.1248252 0.006,-0.2755115 -0.0168,-0.3348586 z M 30.670575,8.9547526 C 30.886243,8.682397 31.161227,8.6571985 34.219307,8.6295598 l 3.017312,-0.02727 -0.02167,-0.858576 -0.02167,-0.858576 -2.995644,-0.022775 c -3.200242,-0.024331 -4.130397,0.03368 -4.829475,0.3011994 -0.787075,0.3011932 -1.30238,0.8993179 -1.402197,1.6275603 l -0.04549,0.3318587 1.333515,-0.031661 c 1.005358,-0.023871 1.353956,-0.057476 1.416585,-0.1365666 z M 40.928071,8.824605 c 0.23182,-0.1714752 0.257568,-0.1729995 3.299777,-0.1953349 l 3.066139,-0.022511 V 7.7267456 6.8467322 H 44.15478 c -3.426668,0 -4.064138,0.05541 -4.90464,0.4263235 -0.750307,0.3311097 -1.250335,0.9275722 -1.250335,1.4914743 v 0.2328989 h 1.34731 c 1.276776,0 1.359544,-0.00905 1.580956,-0.1728239 z"
       id="path8"
       inkscape:connector-curvature="0" />
  </g>
</svg>
